# xmcd
#
# Track frame offsets:
#	150
#	18346
#	30643
#	50528
#	65318
#	78866
#	87435
#	116108
#	130820
#	147879
#	165731
#	167956
#
# Disc length: 2525 seconds
#
# Revision: 1
# Processed by: cddbd v1.5.2PL0 Copyright (c) Steve Scherf et al.
# Submitted via: audiograbber 1.83.01
#
DISCID=9c09db0c
DTITLE=Mastic Scum - Scar
DYEAR=2002
DGENRE=Metal
TTITLE0=Face 2 Face
TTITLE1=Distance to the Truth
TTITLE2=Re-Progression
TTITLE3=The Daily Grind
TTITLE4=To Die Is Not Enough
TTITLE5=One-Track Minded
TTITLE6=Turn Inside Out
TTITLE7=Liar
TTITLE8=Generation-X
TTITLE9=Self-Respect
TTITLE10=Kiss or Kill
TTITLE11=Eyesolation
EXTD=
EXTT0=
EXTT1=
EXTT2=
EXTT3=
EXTT4=
EXTT5=
EXTT6=
EXTT7=
EXTT8=
EXTT9=
EXTT10=
EXTT11=
PLAYORDER=
